<?xml version="1.0" encoding="UTF-8" standalone="no"?>
<!-- Created with Inkscape (http://www.inkscape.org/) -->

<svg
   xmlns:dc="http://purl.org/dc/elements/1.1/"
   xmlns:cc="http://creativecommons.org/ns#"
   xmlns:rdf="http://www.w3.org/1999/02/22-rdf-syntax-ns#"
   xmlns:svg="http://www.w3.org/2000/svg"
   xmlns="http://www.w3.org/2000/svg"
   xmlns:sodipodi="http://sodipodi.sourceforge.net/DTD/sodipodi-0.dtd"
   xmlns:inkscape="http://www.inkscape.org/namespaces/inkscape"
   id="svg2"
   version="1.1"
   inkscape:version="0.91 r13725"
   width="180"
   height="105"
   viewBox="0 0 180 105"
   sodipodi:docname="analyse.svg">
  <metadata
     id="metadata8">
    <rdf:RDF>
      <cc:Work
         rdf:about="">
        <dc:format>image/svg+xml</dc:format>
        <dc:type
           rdf:resource="http://purl.org/dc/dcmitype/StillImage" />
        <dc:title></dc:title>
      </cc:Work>
    </rdf:RDF>
  </metadata>
  <defs
     id="defs6" />
  <sodipodi:namedview
     pagecolor="#ffffff"
     bordercolor="#666666"
     borderopacity="1"
     objecttolerance="10"
     gridtolerance="10"
     guidetolerance="10"
     inkscape:pageopacity="0"
     inkscape:pageshadow="2"
     inkscape:window-width="1680"
     inkscape:window-height="987"
     id="namedview4"
     showgrid="false"
     inkscape:zoom="2.085965"
     inkscape:cx="152.77774"
     inkscape:cy="163.38196"
     inkscape:window-x="1672"
     inkscape:window-y="-8"
     inkscape:window-maximized="1"
     inkscape:current-layer="svg2" />
  <path
     style="fill:#ffffff;fill-opacity:1"
     d="m 130.16591,60.278 -3.2873,3.4633 c -2.74482,2.89179 -3.25161,4.5032 -3.07108,9.76489 0.26626,7.76028 -2.53063,12.51684 -8.94352,15.20988 -3.9805,1.67156 -5.23943,1.69921 -9.47703,0.20809 -6.789929,-2.38924 -10.078329,-7.23806 -10.097679,-14.88927 -0.0154,-6.08603 -0.14215,-6.2802 -11.634,-17.82134 l -11.61844,-11.66826 -6.85057,0.11161 -6.85057,0.11161 -15.40455,19.26494 c -14.908458,18.64453 -15.364968,19.3939 -14.175528,23.26947 1.765878,5.75377 -1.93551,12.89651 -8.29149,16.00047 -4.09842,2.00148 -5.52096,2.13565 -9.62044,0.90741 C 5.2697729,102.54082 1.2903129,98.06302 0.19597287,92.22965 -1.4018771,83.71237 7.0261729,74.9581 16.188183,75.61843 c 4.62393,0.33326 4.79895,0.16826 20.158808,-19.00479 13.8607,-17.30172 15.35782,-19.64073 14.19911,-22.18383 -1.80091,-3.95256 0.78475,-12.0254 4.88454,-15.25029 10.42723,-8.20206 23.5931,-1.15245 23.5931,12.63282 0,5.85963 0.21081,6.17937 11.64285,17.65914 l 11.642839,11.69146 7.10716,-0.0412 c 6.62205,-0.0384 7.39104,-0.36183 11.26642,-4.73829 l 4.15928,-4.69706 6.35731,-7.13076 9.8424,-10.5505 c 9.78321,-10.48707 9.83846,-10.58435 9.18668,-16.17552 -2.11806,-18.1693 23.03095,-23.89577 28.26221,-6.43535 2.90157,9.68459 -4.31859,18.41686 -15.04057,18.19051 -5.62988,-0.11885 -5.7625,-0.0238 -16.12263,11.5558 L 136.88163,52.81622 Z M 19.023743,90.32961 c 0,-4.16666 -0.20833,-4.375 -4.375,-4.375 -3.62622,0 -4.4454,0.49691 -4.7863501,2.90341 -0.70784,4.99613 0.6548901,6.66638 5.0902601,6.23893 3.74461,-0.36088 4.07109,-0.74319 4.07109,-4.76734 z m 94.999997,-15 c 0,-4.16667 -0.20834,-4.375 -4.375,-4.375 -3.62623,0 -4.4454,0.49691 -4.78635,2.90341 -0.70785,4.99613 0.65489,6.66638 5.09025,6.23893 3.74462,-0.36088 4.0711,-0.74319 4.0711,-4.76734 z M 69.023741,30.3296 c 0,-4.16666 -0.20833,-4.375 -4.375,-4.375 -3.62623,0 -4.4454,0.49692 -4.78635,2.90341 -0.70784,4.99613 0.65489,6.66638 5.09026,6.23893 3.74461,-0.36087 4.07109,-0.74319 4.07109,-4.76734 z M 169.02374,15.32961 c 0,-4.16667 -0.20834,-4.375 -4.375,-4.375 -3.62623,0 -4.4454,0.49691 -4.78635,2.9034 -0.70785,4.99613 0.65489,6.66638 5.09025,6.23893 3.74462,-0.36087 4.0711,-0.74319 4.0711,-4.76733 z"
     id="path4138"
     inkscape:connector-curvature="0"
     sodipodi:nodetypes="csssssscccssssssssssscssccsssssccssssssssssssssssssss" />
</svg>
