<?xml version="1.0" encoding="UTF-8" standalone="no"?>
<!-- Generator: Adobe Illustrator 16.0.0, SVG Export Plug-In . SVG Version: 6.00 Build 0)  -->

<svg
   xmlns:osb="http://www.openswatchbook.org/uri/2009/osb"
   xmlns:dc="http://purl.org/dc/elements/1.1/"
   xmlns:cc="http://creativecommons.org/ns#"
   xmlns:rdf="http://www.w3.org/1999/02/22-rdf-syntax-ns#"
   xmlns:svg="http://www.w3.org/2000/svg"
   xmlns="http://www.w3.org/2000/svg"
   xmlns:sodipodi="http://sodipodi.sourceforge.net/DTD/sodipodi-0.dtd"
   xmlns:inkscape="http://www.inkscape.org/namespaces/inkscape"
   version="1.1"
   id="Layer_1"
   x="0px"
   y="0px"
   width="800"
   height="154.002"
   viewBox="0 0 800 154.002"
   enable-background="new 0 0 800 200.002"
   xml:space="preserve"
   inkscape:version="0.91 r13725"
   sodipodi:docname="wave-rect-only2.svg"><metadata
   id="metadata9"><rdf:RDF><cc:Work
       rdf:about=""><dc:format>image/svg+xml</dc:format><dc:type
         rdf:resource="http://purl.org/dc/dcmitype/StillImage" /><dc:title /></cc:Work></rdf:RDF></metadata><defs
   id="defs7"><linearGradient
     id="linearGradient24701"
     osb:paint="solid"><stop
       style="stop-color:#000070;stop-opacity:1;"
       offset="0"
       id="stop24703" /></linearGradient><linearGradient
     id="linearGradient24401"
     osb:paint="solid"><stop
       style="stop-color:#000070;stop-opacity:0.18430035;"
       offset="0"
       id="stop24403" /></linearGradient><linearGradient
     id="linearGradient23597"
     osb:paint="solid"><stop
       style="stop-color:#000070;stop-opacity:0;"
       offset="0"
       id="stop23599" /></linearGradient><linearGradient
     id="linearGradient23465"
     osb:paint="solid"><stop
       style="stop-color:#000070;stop-opacity:1;"
       offset="0"
       id="stop23467" /></linearGradient><linearGradient
     id="linearGradient23077"
     osb:paint="solid"><stop
       style="stop-color:#4527a0;stop-opacity:0.05119454;"
       offset="0"
       id="stop23079" /></linearGradient><linearGradient
     id="linearGradient22309"
     osb:paint="solid"><stop
       style="stop-color:#000091;stop-opacity:0;"
       offset="0"
       id="stop22311" /></linearGradient><marker
     inkscape:stockid="DiamondL"
     orient="auto"
     refY="0.0"
     refX="0.0"
     id="marker18225"
     style="overflow:visible"
     inkscape:isstock="true"><path
       id="path18227"
       d="M 0,-7.0710768 L -7.0710894,0 L 0,7.0710589 L 7.0710462,0 L 0,-7.0710768 z "
       style="fill-rule:evenodd;stroke:#000070;stroke-width:1pt;stroke-opacity:0.11262799;fill:#f5f5f6;fill-opacity:1"
       transform="scale(0.8)" /></marker><marker
     inkscape:stockid="StopL"
     orient="auto"
     refY="0.0"
     refX="0.0"
     id="StopL"
     style="overflow:visible"
     inkscape:isstock="true"><path
       id="path5176"
       d="M 0.0,5.65 L 0.0,-5.65"
       style="fill:#ffffff;fill-opacity:1;fill-rule:evenodd;stroke:#000070;stroke-width:1pt;stroke-opacity:0.3105802"
       transform="scale(0.8)" /></marker><marker
     inkscape:stockid="Tail"
     orient="auto"
     refY="0.0"
     refX="0.0"
     id="marker17230"
     style="overflow:visible"
     inkscape:isstock="true"><g
       id="g5043"
       transform="scale(-1.2)"
       style="stroke:#000070;stroke-opacity:0.3105802;fill:#ffffff;fill-opacity:1"><path
         id="path5045"
         d="M -3.8048674,-3.9585227 L 0.54352094,0"
         style="fill:#ffffff;fill-rule:evenodd;stroke:#000070;stroke-width:0.8;stroke-linecap:round;stroke-opacity:0.3105802;fill-opacity:1" /><path
         id="path5047"
         d="M -1.2866832,-3.9585227 L 3.0617053,0"
         style="fill:#ffffff;fill-rule:evenodd;stroke:#000070;stroke-width:0.8;stroke-linecap:round;stroke-opacity:0.3105802;fill-opacity:1" /><path
         id="path5049"
         d="M 1.3053582,-3.9585227 L 5.6537466,0"
         style="fill:#ffffff;fill-rule:evenodd;stroke:#000070;stroke-width:0.8;stroke-linecap:round;stroke-opacity:0.3105802;fill-opacity:1" /><path
         id="path5051"
         d="M -3.8048674,4.1775838 L 0.54352094,0.21974226"
         style="fill:#ffffff;fill-rule:evenodd;stroke:#000070;stroke-width:0.8;stroke-linecap:round;stroke-opacity:0.3105802;fill-opacity:1" /><path
         id="path5053"
         d="M -1.2866832,4.1775838 L 3.0617053,0.21974226"
         style="fill:#ffffff;fill-rule:evenodd;stroke:#000070;stroke-width:0.8;stroke-linecap:round;stroke-opacity:0.3105802;fill-opacity:1" /><path
         id="path5055"
         d="M 1.3053582,4.1775838 L 5.6537466,0.21974226"
         style="fill:#ffffff;fill-rule:evenodd;stroke:#000070;stroke-width:0.8;stroke-linecap:round;stroke-opacity:0.3105802;fill-opacity:1" /></g></marker><marker
     style="overflow:visible"
     inkscape:stockid="InfiniteLineEnd"
     id="marker16729"
     refX="0"
     refY="0"
     orient="auto"
     inkscape:isstock="true"><g
       id="g5242"
       style="fill:#ffffff;stroke:#000070;stroke-opacity:0.3105802;fill-opacity:1"><circle
         id="circle5244"
         r="0.8"
         cy="0"
         cx="3"
         style="stroke:#000070;stroke-opacity:0.3105802;fill:#ffffff;fill-opacity:1" /><circle
         id="circle5246"
         r="0.8"
         cy="0"
         cx="6.5"
         style="stroke:#000070;stroke-opacity:0.3105802;fill:#ffffff;fill-opacity:1" /><circle
         id="circle5248"
         r="0.8"
         cy="0"
         cx="10"
         style="stroke:#000070;stroke-opacity:0.3105802;fill:#ffffff;fill-opacity:1" /></g></marker><marker
     style="overflow:visible"
     inkscape:stockid="InfiniteLineStart"
     id="marker16269"
     refX="0"
     refY="0"
     orient="auto"
     inkscape:isstock="true"><g
       id="g16271"
       style="fill:#ffffff;stroke:#000070;stroke-opacity:0.3105802;fill-opacity:1"
       transform="translate(-13,0)"><circle
         id="circle16273"
         r="0.8"
         cy="0"
         cx="3"
         style="stroke:#000070;stroke-opacity:0.3105802;fill:#ffffff;fill-opacity:1" /><circle
         id="circle16275"
         r="0.8"
         cy="0"
         cx="6.5"
         style="stroke:#000070;stroke-opacity:0.3105802;fill:#ffffff;fill-opacity:1" /><circle
         id="circle16277"
         r="0.8"
         cy="0"
         cx="10"
         style="stroke:#000070;stroke-opacity:0.3105802;fill:#ffffff;fill-opacity:1" /></g></marker><marker
     inkscape:stockid="Arrow1Lstart"
     orient="auto"
     refY="0.0"
     refX="0.0"
     id="marker15848"
     style="overflow:visible"
     inkscape:isstock="true"><path
       id="path15850"
       d="M 0.0,0.0 L 5.0,-5.0 L -12.5,0.0 L 5.0,5.0 L 0.0,0.0 z "
       style="fill-rule:evenodd;stroke:#000070;stroke-width:1pt;stroke-opacity:0.3105802;fill:#ffffff;fill-opacity:1"
       transform="scale(0.8) translate(12.5,0)" /></marker><marker
     inkscape:stockid="Arrow1Lstart"
     orient="auto"
     refY="0.0"
     refX="0.0"
     id="Arrow1Lstart"
     style="overflow:visible"
     inkscape:isstock="true"><path
       id="path5007"
       d="M 0.0,0.0 L 5.0,-5.0 L -12.5,0.0 L 5.0,5.0 L 0.0,0.0 z "
       style="fill-rule:evenodd;stroke:#000070;stroke-width:1pt;stroke-opacity:0.3105802;fill:#ffffff;fill-opacity:1"
       transform="scale(0.8) translate(12.5,0)" /></marker><marker
     style="overflow:visible"
     inkscape:stockid="InfiniteLineStart"
     id="marker12536"
     refX="0"
     refY="0"
     orient="auto"
     inkscape:isstock="true"><g
       id="g12538"
       style="fill:#ffffff;stroke:#000070;stroke-opacity:0.3105802;fill-opacity:1"
       transform="translate(-13,0)"><circle
         id="circle12540"
         r="0.8"
         cy="0"
         cx="3"
         style="stroke:#000070;stroke-opacity:0.3105802;fill:#ffffff;fill-opacity:1" /><circle
         id="circle12542"
         r="0.8"
         cy="0"
         cx="6.5"
         style="stroke:#000070;stroke-opacity:0.3105802;fill:#ffffff;fill-opacity:1" /><circle
         id="circle12544"
         r="0.8"
         cy="0"
         cx="10"
         style="stroke:#000070;stroke-opacity:0.3105802;fill:#ffffff;fill-opacity:1" /></g></marker><marker
     style="overflow:visible"
     inkscape:stockid="InfiniteLineStart"
     id="marker11852"
     refX="0"
     refY="0"
     orient="auto"
     inkscape:isstock="true"><g
       id="g5251"
       style="fill:#f5f5f6;stroke:#000070;stroke-opacity:0.11262799;fill-opacity:1"
       transform="translate(-13,0)"><circle
         id="circle5253"
         r="0.8"
         cy="0"
         cx="3"
         style="stroke:#000070;stroke-opacity:0.11262799;fill:#f5f5f6;fill-opacity:1" /><circle
         id="circle5255"
         r="0.8"
         cy="0"
         cx="6.5"
         style="stroke:#000070;stroke-opacity:0.11262799;fill:#f5f5f6;fill-opacity:1" /><circle
         id="circle5257"
         r="0.8"
         cy="0"
         cx="10"
         style="stroke:#000070;stroke-opacity:0.11262799;fill:#f5f5f6;fill-opacity:1" /></g></marker><marker
     inkscape:stockid="DotL"
     orient="auto"
     refY="0.0"
     refX="0.0"
     id="marker11410"
     style="overflow:visible"
     inkscape:isstock="true"><path
       id="path11412"
       d="M -2.5,-1.0 C -2.5,1.7600000 -4.7400000,4.0 -7.5,4.0 C -10.260000,4.0 -12.5,1.7600000 -12.5,-1.0 C -12.5,-3.7600000 -10.260000,-6.0 -7.5,-6.0 C -4.7400000,-6.0 -2.5,-3.7600000 -2.5,-1.0 z "
       style="fill-rule:evenodd;stroke:#000070;stroke-width:1pt;stroke-opacity:0.3105802;fill:#ffffff;fill-opacity:1"
       transform="scale(0.8) translate(7.4, 1)" /></marker><marker
     inkscape:stockid="CurvyCross"
     orient="auto"
     refY="0.0"
     refX="0.0"
     id="CurvyCross"
     style="overflow:visible"
     inkscape:isstock="true"><g
       id="g5197"
       transform="scale(0.6)"
       style="stroke:#000070;stroke-opacity:0.3105802;fill:#ffffff;fill-opacity:1"><path
         id="path5199"
         d="M 4.6254930,-5.0456926 C 1.8654930,-5.0456926 -0.37450702,-2.8056926 -0.37450702,-0.045692580 C -0.37450702,2.7143074 1.8654930,4.9543074 4.6254930,4.9543074"
         style="fill:#ffffff;fill-rule:evenodd;stroke:#000070;stroke-width:1pt;stroke-opacity:0.3105802;fill-opacity:1" /><path
         id="path5201"
         d="M -5.4129913,-5.0456926 C -2.6529913,-5.0456926 -0.41299131,-2.8056926 -0.41299131,-0.045692580 C -0.41299131,2.7143074 -2.6529913,4.9543074 -5.4129913,4.9543074"
         style="fill:#ffffff;fill-rule:evenodd;stroke:#000070;stroke-width:1pt;stroke-opacity:0.3105802;fill-opacity:1" /></g></marker><marker
     inkscape:stockid="DotM"
     orient="auto"
     refY="0.0"
     refX="0.0"
     id="marker10694"
     style="overflow:visible"
     inkscape:isstock="true"><path
       id="path10696"
       d="M -2.5,-1.0 C -2.5,1.7600000 -4.7400000,4.0 -7.5,4.0 C -10.260000,4.0 -12.5,1.7600000 -12.5,-1.0 C -12.5,-3.7600000 -10.260000,-6.0 -7.5,-6.0 C -4.7400000,-6.0 -2.5,-3.7600000 -2.5,-1.0 z "
       style="fill-rule:evenodd;stroke:#000070;stroke-width:1pt;stroke-opacity:0.3105802;fill:#ffffff;fill-opacity:1"
       transform="scale(0.4) translate(7.4, 1)" /></marker><marker
     inkscape:stockid="DiamondMend"
     orient="auto"
     refY="0"
     refX="0"
     id="DiamondMend"
     style="overflow:visible"
     inkscape:isstock="true"><path
       id="path5107"
       d="M 0,-7.0710768 -7.0710894,0 0,7.0710589 7.0710462,0 0,-7.0710768 Z"
       style="fill:#ffffff;fill-opacity:1;fill-rule:evenodd;stroke:#000070;stroke-width:1pt;stroke-opacity:0.3105802"
       transform="matrix(0.4,0,0,0.4,-2.6,0)"
       inkscape:connector-curvature="0" /></marker><marker
     inkscape:stockid="DiamondLstart"
     orient="auto"
     refY="0"
     refX="0"
     id="marker8561"
     style="overflow:visible"
     inkscape:isstock="true"><path
       id="path5095"
       d="M 0,-7.0710768 -7.0710894,0 0,7.0710589 7.0710462,0 0,-7.0710768 Z"
       style="fill:#ffffff;fill-opacity:1;fill-rule:evenodd;stroke:#000070;stroke-width:1pt;stroke-opacity:0.3105802"
       transform="matrix(0.8,0,0,0.8,5.6,0)"
       inkscape:connector-curvature="0" /></marker><marker
     inkscape:stockid="DiamondSend"
     orient="auto"
     refY="0"
     refX="0"
     id="marker8228"
     style="overflow:visible"
     inkscape:isstock="true"><path
       id="path5110"
       d="M 0,-7.0710768 -7.0710894,0 0,7.0710589 7.0710462,0 0,-7.0710768 Z"
       style="fill:#ffffff;fill-opacity:1;fill-rule:evenodd;stroke:#000070;stroke-width:1pt;stroke-opacity:0.3105802"
       transform="matrix(0.2,0,0,0.2,-1.2,0)"
       inkscape:connector-curvature="0" /></marker><marker
     inkscape:stockid="Arrow1Mstart"
     orient="auto"
     refY="0"
     refX="0"
     id="Arrow1Mstart"
     style="overflow:visible"
     inkscape:isstock="true"><path
       id="path5013"
       d="M 0,0 5,-5 -12.5,0 5,5 0,0 Z"
       style="fill:#ffffff;fill-opacity:1;fill-rule:evenodd;stroke:#000070;stroke-width:1pt;stroke-opacity:0.3105802"
       transform="matrix(0.4,0,0,0.4,4,0)"
       inkscape:connector-curvature="0" /></marker><marker
     inkscape:stockid="DotL"
     orient="auto"
     refY="0"
     refX="0"
     id="marker7580"
     style="overflow:visible"
     inkscape:isstock="true"><path
       id="path7582"
       d="m -2.5,-1 c 0,2.76 -2.24,5 -5,5 -2.76,0 -5,-2.24 -5,-5 0,-2.76 2.24,-5 5,-5 2.76,0 5,2.24 5,5 z"
       style="fill:#ffffff;fill-opacity:1;fill-rule:evenodd;stroke:#000070;stroke-width:1pt;stroke-opacity:0.3105802"
       transform="matrix(0.8,0,0,0.8,5.92,0.8)"
       inkscape:connector-curvature="0" /></marker><marker
     inkscape:stockid="DiamondL"
     orient="auto"
     refY="0"
     refX="0"
     id="marker7265"
     style="overflow:visible"
     inkscape:isstock="true"><path
       id="path5086"
       d="M 0,-7.0710768 -7.0710894,0 0,7.0710589 7.0710462,0 0,-7.0710768 Z"
       style="fill:#f5f5f6;fill-opacity:1;fill-rule:evenodd;stroke:#000070;stroke-width:1pt;stroke-opacity:0.11262799"
       transform="scale(0.8,0.8)"
       inkscape:connector-curvature="0" /></marker><marker
     inkscape:stockid="EmptyDiamondM"
     orient="auto"
     refY="0"
     refX="0"
     id="marker6830"
     style="overflow:visible"
     inkscape:isstock="true"><path
       id="path5116"
       d="M 0,-7.0710768 -7.0710894,0 0,7.0710589 7.0710462,0 0,-7.0710768 Z"
       style="fill:#ffffff;fill-opacity:1;fill-rule:evenodd;stroke:#000070;stroke-width:1pt;stroke-opacity:0.3105802"
       transform="scale(0.4,0.4)"
       inkscape:connector-curvature="0" /></marker><marker
     inkscape:stockid="EmptyDiamondMstart"
     orient="auto"
     refY="0"
     refX="0"
     id="EmptyDiamondMstart"
     style="overflow:visible"
     inkscape:isstock="true"><path
       id="path5125"
       d="M 0,-7.0710768 -7.0710894,0 0,7.0710589 7.0710462,0 0,-7.0710768 Z"
       style="fill:#ffffff;fill-opacity:1;fill-rule:evenodd;stroke:#000070;stroke-width:1pt;stroke-opacity:0.3105802"
       transform="matrix(0.4,0,0,0.4,2.6,0)"
       inkscape:connector-curvature="0" /></marker><marker
     inkscape:stockid="EmptyDiamondL"
     orient="auto"
     refY="0"
     refX="0"
     id="EmptyDiamondL"
     style="overflow:visible"
     inkscape:isstock="true"><path
       id="path5113"
       d="M 0,-7.0710768 -7.0710894,0 0,7.0710589 7.0710462,0 0,-7.0710768 Z"
       style="fill:#f5f5f6;fill-opacity:1;fill-rule:evenodd;stroke:#000070;stroke-width:1pt;stroke-opacity:0.11262799"
       transform="scale(0.8,0.8)"
       inkscape:connector-curvature="0" /></marker><marker
     inkscape:stockid="DotM"
     orient="auto"
     refY="0"
     refX="0"
     id="marker5892"
     style="overflow:visible"
     inkscape:isstock="true"><path
       id="path5894"
       d="m -2.5,-1 c 0,2.76 -2.24,5 -5,5 -2.76,0 -5,-2.24 -5,-5 0,-2.76 2.24,-5 5,-5 2.76,0 5,2.24 5,5 z"
       style="fill:#ffffff;fill-opacity:1;fill-rule:evenodd;stroke:#000070;stroke-width:1pt;stroke-opacity:0.3105802"
       transform="matrix(0.4,0,0,0.4,2.96,0.4)"
       inkscape:connector-curvature="0" /></marker><marker
     inkscape:stockid="DotM"
     orient="auto"
     refY="0"
     refX="0"
     id="DotM"
     style="overflow:visible"
     inkscape:isstock="true"><path
       id="path5071"
       d="m -2.5,-1 c 0,2.76 -2.24,5 -5,5 -2.76,0 -5,-2.24 -5,-5 0,-2.76 2.24,-5 5,-5 2.76,0 5,2.24 5,5 z"
       style="fill:#f5f5f6;fill-opacity:1;fill-rule:evenodd;stroke:#000070;stroke-width:1pt;stroke-opacity:0.11262799"
       transform="matrix(0.4,0,0,0.4,2.96,0.4)"
       inkscape:connector-curvature="0" /></marker><marker
     inkscape:stockid="DotL"
     orient="auto"
     refY="0"
     refX="0"
     id="marker5263"
     style="overflow:visible"
     inkscape:isstock="true"><path
       id="path5068"
       d="m -2.5,-1 c 0,2.76 -2.24,5 -5,5 -2.76,0 -5,-2.24 -5,-5 0,-2.76 2.24,-5 5,-5 2.76,0 5,2.24 5,5 z"
       style="fill:#ffffff;fill-opacity:1;fill-rule:evenodd;stroke:#000070;stroke-width:1pt;stroke-opacity:0.3105802"
       transform="matrix(0.8,0,0,0.8,5.92,0.8)"
       inkscape:connector-curvature="0" /></marker><linearGradient
     id="linearGradient14871"
     osb:paint="solid"><stop
       style="stop-color:#000070;stop-opacity:1;"
       offset="0"
       id="stop14873" /></linearGradient><marker
     inkscape:stockid="DiamondLend"
     orient="auto"
     refY="0"
     refX="0"
     id="marker14396"
     style="overflow:visible"
     inkscape:isstock="true"><path
       id="path14398"
       d="M 0,-7.0710768 -7.0710894,0 0,7.0710589 7.0710462,0 0,-7.0710768 Z"
       style="fill:#f5f5f6;fill-opacity:1;fill-rule:evenodd;stroke:#000070;stroke-width:1pt;stroke-opacity:0.11262799"
       transform="matrix(0.8,0,0,0.8,-5.6,0)"
       inkscape:connector-curvature="0" /></marker><marker
     inkscape:stockid="DiamondSstart"
     orient="auto"
     refY="0"
     refX="0"
     id="DiamondSstart"
     style="overflow:visible"
     inkscape:isstock="true"><path
       id="path5679"
       d="M 0,-7.0710768 -7.0710894,0 0,7.0710589 7.0710462,0 0,-7.0710768 Z"
       style="fill:#ffffff;fill-opacity:1;fill-rule:evenodd;stroke:#000070;stroke-width:1pt;stroke-opacity:0.3105802"
       transform="matrix(0.2,0,0,0.2,1.2,0)"
       inkscape:connector-curvature="0" /></marker><marker
     style="overflow:visible"
     id="DistanceStart"
     refX="0"
     refY="0"
     orient="auto"
     inkscape:stockid="DistanceStart"
     inkscape:isstock="true"><g
       id="g2300"
       style="fill:#ffffff;fill-opacity:1;stroke:#000070;stroke-opacity:0.3105802"><path
         style="fill:#ffffff;fill-opacity:1;stroke:#000070;stroke-width:1.14999998;stroke-linecap:square;stroke-opacity:0.3105802"
         d="M 0,0 2,0"
         id="path2306"
         inkscape:connector-curvature="0" /><path
         style="fill:#ffffff;fill-opacity:1;fill-rule:evenodd;stroke:#000070;stroke-opacity:0.3105802"
         d="M 0,0 13,4 9,0 13,-4 0,0 Z"
         id="path2302"
         inkscape:connector-curvature="0" /><path
         style="fill:#ffffff;fill-opacity:1;stroke:#000070;stroke-width:1;stroke-linecap:square;stroke-opacity:0.3105802"
         d="M 0,-4 0,40"
         id="path2304"
         inkscape:connector-curvature="0" /></g></marker><marker
     inkscape:stockid="Club"
     orient="auto"
     refY="0"
     refX="0"
     id="Club"
     style="overflow:visible"
     inkscape:isstock="true"><path
       id="path5814"
       d="m -1.5971367,-7.0977635 c -1.8892507,0 -3.426382,1.5371314 -3.426382,3.4263822 0,0.6566798 0.2383531,1.2269257 0.5594092,1.7481542 -0.038751,0.032111 -0.079672,0.058463 -0.1165436,0.093235 -0.6224234,-0.8549928 -1.5893983,-1.4451409 -2.7271199,-1.4451409 -1.8892515,-1e-7 -3.426382,1.5371314 -3.426382,3.42638214 0,1.88925076 1.5371305,3.42638216 3.426382,3.42638216 0.9934462,0 1.868619,-0.4420611 2.4940326,-1.1188187 -0.124687,0.3548915 -0.2097783,0.7214874 -0.2097783,1.1188187 0,1.8892506 1.5371313,3.4263822 3.426382,3.4263822 1.88925064,0 3.4263821,-1.5371316 3.4263821,-3.4263822 0,-0.7933959 -0.3155586,-1.4938285 -0.7691878,-2.0744763 C 2.4152718,1.7663868 3.7718375,2.2973711 4.7661444,3.8340272 4.0279463,3.0958289 3.5540908,1.7534117 3.5540908,-0.05852936 l -0.6293354,-0.04661745 0.5827179,-0.0233087 c 0,-1.81194109 0.4505466,-3.15435829 1.188745,-3.89255659 -0.9590906,1.4822308 -2.2571634,2.0263625 -3.5662345,2.3075635 0.4041964,-0.5619092 0.6992616,-1.213407 0.6992616,-1.9579327 0,-1.8892506 -1.53713146,-3.4263822 -3.4263821,-3.4263822 z"
       style="fill:#ffffff;fill-opacity:1;fill-rule:evenodd;stroke:#000070;stroke-width:0.74587913pt;stroke-opacity:0.3105802"
       transform="scale(0.6,0.6)"
       inkscape:connector-curvature="0" /></marker><marker
     inkscape:stockid="Scissors"
     orient="auto"
     refY="0"
     refX="0"
     id="Scissors"
     style="overflow:visible"
     inkscape:isstock="true"><path
       id="schere"
       d="M 9.0898857,-3.6061018 C 8.1198849,-4.7769976 6.3697607,-4.7358294 5.0623558,-4.2327734 l -8.2124046,3.0779029 c -2.3882933,-1.3067135 -4.7482873,-0.9325372 -4.7482873,-1.5687873 0,-0.4973164 0.4566662,-0.3883222 0.3883068,-1.6831941 -0.065635,-1.2432767 -1.3635771,-2.1630796 -2.5903987,-2.0816435 -1.227271,-0.00735 -2.499439,0.9331613 -2.510341,2.2300611 -0.09143,1.3063864 1.007209,2.5196896 2.306764,2.6052316 1.5223406,0.2266616 4.218258,-0.6955566 5.482945,1.57086006 -0.9422847,1.73825774 -2.6140244,1.74307674 -4.1255107,1.65607034 -1.2548743,-0.072235 -2.7620933,0.2873979 -3.3606483,1.5208605 -0.578367,1.1820862 -0.0112,2.8646022 1.316749,3.226412 1.3401912,0.4918277 3.1806689,-0.129711 3.4993722,-1.6707242 0.2456585,-1.187823 -0.5953659,-1.7459574 -0.2725074,-2.1771537 0.2436135,-0.32536 1.7907806,-0.1368452 4.5471053,-1.3748244 L 5.6763468,4.2330688 C 6.8000164,4.5467672 8.1730685,4.5362646 9.1684433,3.4313614 L -0.05164093,-0.05372222 9.0898857,-3.6061018 Z m -18.3078016,-1.900504 c 1.294559,0.7227998 1.1888392,2.6835702 -0.1564272,3.0632889 -1.2165179,0.423661 -2.7710269,-0.7589694 -2.3831779,-2.0774648 0.227148,-1.0818519 1.653387,-1.480632 2.5396051,-0.9858241 z m 0.056264,8.0173649 c 1.3508301,0.4988648 1.1214429,2.7844356 -0.2522207,3.091609 -0.9110594,0.3163391 -2.2135494,-0.1387976 -2.3056964,-1.2121394 -0.177609,-1.305055 1.356085,-2.4841482 2.5579171,-1.8794696 z"
       style="fill:#ffffff;fill-opacity:1;stroke:#000070;stroke-opacity:0.3105802"
       inkscape:connector-curvature="0" /></marker><marker
     inkscape:stockid="Torso"
     orient="auto"
     refY="0"
     refX="0"
     id="Torso"
     style="overflow:visible"
     inkscape:isstock="true"><g
       id="g5797"
       transform="scale(0.7,0.7)"
       style="fill:#ffffff;fill-opacity:1;stroke:#000070;stroke-opacity:0.3105802"><path
         id="path5799"
         d="m -4.7792281,-3.239542 c 2.350374,0.3659393 5.30026732,1.9375477 5.03715532,3.62748546 C -0.00518779,2.0778819 -2.2126741,2.6176539 -4.5630471,2.2517169 -6.9134221,1.8857769 -8.521035,0.75201414 -8.257922,-0.93792336 -7.994809,-2.6278615 -7.1296041,-3.6054813 -4.7792281,-3.239542 Z"
         style="fill:#ffffff;fill-opacity:1;fill-rule:evenodd;stroke:#000070;stroke-width:1.25;stroke-opacity:0.3105802"
         inkscape:connector-curvature="0" /><path
         id="path5801"
         d="M 4.4598789,0.08866574 C -2.5564571,-4.378332 5.2248769,-3.9061806 -0.84829578,-8.7197331"
         style="fill:#ffffff;fill-opacity:1;fill-rule:evenodd;stroke:#000070;stroke-width:1pt;stroke-opacity:0.3105802"
         inkscape:connector-curvature="0" /><path
         id="path5803"
         d="M 4.9298719,0.05752074 C -1.3872731,1.7494689 1.8027579,5.4782079 -4.9448731,7.5462725"
         style="fill:#ffffff;fill-opacity:1;fill-rule:evenodd;stroke:#000070;stroke-width:1pt;stroke-opacity:0.3105802"
         inkscape:connector-curvature="0" /><rect
         id="rect5805"
         transform="matrix(0.527536,-0.849533,0.887668,0.460484,0,0)"
         y="-1.7408575"
         x="-10.391706"
         height="2.7608147"
         width="2.6366582"
         style="fill:#ffffff;fill-opacity:1;fill-rule:evenodd;stroke:#000070;stroke-width:1pt;stroke-opacity:0.3105802" /><rect
         id="rect5807"
         transform="matrix(0.671205,-0.741272,0.790802,0.612072,0,0)"
         y="-7.9629307"
         x="4.9587269"
         height="2.8614161"
         width="2.7327356"
         style="fill:#ffffff;fill-opacity:1;fill-rule:evenodd;stroke:#000070;stroke-width:1pt;stroke-opacity:0.3105802" /><path
         id="path5809"
         transform="matrix(0,-1.109517,1.109517,0,25.96648,19.71619)"
         d="m 16.779951,-28.685045 a 0.60731727,0.60731727 0 1 0 -1.214634,0 0.60731727,0.60731727 0 1 0 1.214634,0 z"
         style="fill:#ffffff;fill-opacity:1;fill-rule:evenodd;stroke:#000070;stroke-width:1pt;stroke-opacity:0.3105802"
         inkscape:connector-curvature="0" /><path
         id="path5811"
         transform="matrix(0,-1.109517,1.109517,0,26.8245,16.99126)"
         d="m 16.779951,-28.685045 a 0.60731727,0.60731727 0 1 0 -1.214634,0 0.60731727,0.60731727 0 1 0 1.214634,0 z"
         style="fill:#ffffff;fill-opacity:1;fill-rule:evenodd;stroke:#000070;stroke-width:1pt;stroke-opacity:0.3105802"
         inkscape:connector-curvature="0" /></g></marker><marker
     inkscape:stockid="EmptyTriangleOutL"
     orient="auto"
     refY="0"
     refX="0"
     id="EmptyTriangleOutL"
     style="overflow:visible"
     inkscape:isstock="true"><path
       id="path5745"
       d="m 5.77,0 -8.65,5 0,-10 8.65,5 z"
       style="fill:#ffffff;fill-opacity:1;fill-rule:evenodd;stroke:#000070;stroke-width:1pt;stroke-opacity:0.3105802"
       transform="matrix(0.8,0,0,0.8,-4.8,0)"
       inkscape:connector-curvature="0" /></marker><marker
     inkscape:stockid="DiamondLend"
     orient="auto"
     refY="0"
     refX="0"
     id="marker10055"
     style="overflow:visible"
     inkscape:isstock="true"><path
       id="path10057"
       d="M 0,-7.0710768 -7.0710894,0 0,7.0710589 7.0710462,0 0,-7.0710768 Z"
       style="fill:#ffffff;fill-opacity:1;fill-rule:evenodd;stroke:#000070;stroke-width:1pt;stroke-opacity:0.3105802"
       transform="matrix(0.8,0,0,0.8,-5.6,0)"
       inkscape:connector-curvature="0" /></marker><marker
     inkscape:stockid="DiamondSend"
     orient="auto"
     refY="0"
     refX="0"
     id="DiamondSend"
     style="overflow:visible"
     inkscape:isstock="true"><path
       id="path5688"
       d="M 0,-7.0710768 -7.0710894,0 0,7.0710589 7.0710462,0 0,-7.0710768 Z"
       style="fill:#ffffff;fill-opacity:1;fill-rule:evenodd;stroke:#000070;stroke-width:1pt;stroke-opacity:0.3105802"
       transform="matrix(0.2,0,0,0.2,-1.2,0)"
       inkscape:connector-curvature="0" /></marker><marker
     inkscape:stockid="Tail"
     orient="auto"
     refY="0"
     refX="0"
     id="marker9617"
     style="overflow:visible"
     inkscape:isstock="true"><g
       id="g9619"
       transform="scale(-1.2,-1.2)"
       style="fill:#ffffff;fill-opacity:1;stroke:#000070;stroke-opacity:0.3105802"><path
         id="path9621"
         d="M -3.8048674,-3.9585227 0.54352094,0"
         style="fill:#ffffff;fill-opacity:1;fill-rule:evenodd;stroke:#000070;stroke-width:0.80000001;stroke-linecap:round;stroke-opacity:0.3105802"
         inkscape:connector-curvature="0" /><path
         id="path9623"
         d="M -1.2866832,-3.9585227 3.0617053,0"
         style="fill:#ffffff;fill-opacity:1;fill-rule:evenodd;stroke:#000070;stroke-width:0.80000001;stroke-linecap:round;stroke-opacity:0.3105802"
         inkscape:connector-curvature="0" /><path
         id="path9625"
         d="M 1.3053582,-3.9585227 5.6537466,0"
         style="fill:#ffffff;fill-opacity:1;fill-rule:evenodd;stroke:#000070;stroke-width:0.80000001;stroke-linecap:round;stroke-opacity:0.3105802"
         inkscape:connector-curvature="0" /><path
         id="path9627"
         d="M -3.8048674,4.1775838 0.54352094,0.21974226"
         style="fill:#ffffff;fill-opacity:1;fill-rule:evenodd;stroke:#000070;stroke-width:0.80000001;stroke-linecap:round;stroke-opacity:0.3105802"
         inkscape:connector-curvature="0" /><path
         id="path9629"
         d="M -1.2866832,4.1775838 3.0617053,0.21974226"
         style="fill:#ffffff;fill-opacity:1;fill-rule:evenodd;stroke:#000070;stroke-width:0.80000001;stroke-linecap:round;stroke-opacity:0.3105802"
         inkscape:connector-curvature="0" /><path
         id="path9631"
         d="M 1.3053582,4.1775838 5.6537466,0.21974226"
         style="fill:#ffffff;fill-opacity:1;fill-rule:evenodd;stroke:#000070;stroke-width:0.80000001;stroke-linecap:round;stroke-opacity:0.3105802"
         inkscape:connector-curvature="0" /></g></marker><marker
     inkscape:stockid="Arrow2Lstart"
     orient="auto"
     refY="0"
     refX="0"
     id="Arrow2Lstart"
     style="overflow:visible"
     inkscape:isstock="true"><path
       id="path5603"
       style="fill:#ffffff;fill-opacity:1;fill-rule:evenodd;stroke:#000070;stroke-width:0.625;stroke-linejoin:round;stroke-opacity:0.3105802"
       d="M 8.7185878,4.0337352 -2.2072895,0.01601326 8.7185884,-4.0017078 c -1.7454984,2.3720609 -1.7354408,5.6174519 -6e-7,8.035443 z"
       transform="matrix(1.1,0,0,1.1,1.1,0)"
       inkscape:connector-curvature="0" /></marker><marker
     inkscape:stockid="EmptyDiamondM"
     orient="auto"
     refY="0"
     refX="0"
     id="EmptyDiamondM"
     style="overflow:visible"
     inkscape:isstock="true"><path
       id="path5694"
       d="M 0,-7.0710768 -7.0710894,0 0,7.0710589 7.0710462,0 0,-7.0710768 Z"
       style="fill:#ffffff;fill-opacity:1;fill-rule:evenodd;stroke:#000070;stroke-width:1pt;stroke-opacity:0.3105802"
       transform="scale(0.4,0.4)"
       inkscape:connector-curvature="0" /></marker><marker
     inkscape:stockid="DotL"
     orient="auto"
     refY="0"
     refX="0"
     id="DotL"
     style="overflow:visible"
     inkscape:isstock="true"><path
       id="path5646"
       d="m -2.5,-1 c 0,2.76 -2.24,5 -5,5 -2.76,0 -5,-2.24 -5,-5 0,-2.76 2.24,-5 5,-5 2.76,0 5,2.24 5,5 z"
       style="fill:#ffffff;fill-opacity:1;fill-rule:evenodd;stroke:#000070;stroke-width:1pt;stroke-opacity:0.3105802"
       transform="matrix(0.8,0,0,0.8,5.92,0.8)"
       inkscape:connector-curvature="0" /></marker><marker
     inkscape:stockid="Tail"
     orient="auto"
     refY="0"
     refX="0"
     id="Tail"
     style="overflow:visible"
     inkscape:isstock="true"><g
       id="g5621"
       transform="scale(-1.2,-1.2)"
       style="fill:#ffffff;fill-opacity:1;stroke:#000070;stroke-opacity:0.3105802"><path
         id="path5623"
         d="M -3.8048674,-3.9585227 0.54352094,0"
         style="fill:#ffffff;fill-opacity:1;fill-rule:evenodd;stroke:#000070;stroke-width:0.80000001;stroke-linecap:round;stroke-opacity:0.3105802"
         inkscape:connector-curvature="0" /><path
         id="path5625"
         d="M -1.2866832,-3.9585227 3.0617053,0"
         style="fill:#ffffff;fill-opacity:1;fill-rule:evenodd;stroke:#000070;stroke-width:0.80000001;stroke-linecap:round;stroke-opacity:0.3105802"
         inkscape:connector-curvature="0" /><path
         id="path5627"
         d="M 1.3053582,-3.9585227 5.6537466,0"
         style="fill:#ffffff;fill-opacity:1;fill-rule:evenodd;stroke:#000070;stroke-width:0.80000001;stroke-linecap:round;stroke-opacity:0.3105802"
         inkscape:connector-curvature="0" /><path
         id="path5629"
         d="M -3.8048674,4.1775838 0.54352094,0.21974226"
         style="fill:#ffffff;fill-opacity:1;fill-rule:evenodd;stroke:#000070;stroke-width:0.80000001;stroke-linecap:round;stroke-opacity:0.3105802"
         inkscape:connector-curvature="0" /><path
         id="path5631"
         d="M -1.2866832,4.1775838 3.0617053,0.21974226"
         style="fill:#ffffff;fill-opacity:1;fill-rule:evenodd;stroke:#000070;stroke-width:0.80000001;stroke-linecap:round;stroke-opacity:0.3105802"
         inkscape:connector-curvature="0" /><path
         id="path5633"
         d="M 1.3053582,4.1775838 5.6537466,0.21974226"
         style="fill:#ffffff;fill-opacity:1;fill-rule:evenodd;stroke:#000070;stroke-width:0.80000001;stroke-linecap:round;stroke-opacity:0.3105802"
         inkscape:connector-curvature="0" /></g></marker><marker
     inkscape:stockid="DiamondL"
     orient="auto"
     refY="0"
     refX="0"
     id="DiamondL"
     style="overflow:visible"
     inkscape:isstock="true"><path
       id="path5664"
       d="M 0,-7.0710768 -7.0710894,0 0,7.0710589 7.0710462,0 0,-7.0710768 Z"
       style="fill:#f5f5f6;fill-opacity:1;fill-rule:evenodd;stroke:#000070;stroke-width:1pt;stroke-opacity:0.11262799"
       transform="scale(0.8,0.8)"
       inkscape:connector-curvature="0" /></marker><marker
     inkscape:stockid="Arrow2Mstart"
     orient="auto"
     refY="0"
     refX="0"
     id="Arrow2Mstart"
     style="overflow:visible"
     inkscape:isstock="true"><path
       id="path5609"
       style="fill:#ffffff;fill-opacity:1;fill-rule:evenodd;stroke:#000070;stroke-width:0.625;stroke-linejoin:round;stroke-opacity:0.3105802"
       d="M 8.7185878,4.0337352 -2.2072895,0.01601326 8.7185884,-4.0017078 c -1.7454984,2.3720609 -1.7354408,5.6174519 -6e-7,8.035443 z"
       transform="scale(0.6,0.6)"
       inkscape:connector-curvature="0" /></marker><marker
     inkscape:stockid="RazorWire"
     id="RazorWire"
     refX="0"
     refY="0"
     orient="auto"
     style="overflow:visible"
     inkscape:isstock="true"><path
       id="path5817"
       transform="scale(0.8,0.8)"
       style="fill:#ffffff;fill-opacity:1;fill-rule:evenodd;stroke:#000070;stroke-width:0.1pt;stroke-opacity:0.3105802"
       d="m 0.02272727,-0.74009011 0,1.4375 -7.78124997,2.31250001 18.4374997,0 -7.1874997,-2.31250001 0,-1.4375 7.2499997,-2.15624999 -18.4687497,0 7.74999997,2.15624999 z"
       inkscape:connector-curvature="0" /></marker><marker
     style="overflow:visible"
     inkscape:stockid="InfiniteLineStart"
     id="marker6962"
     refX="0"
     refY="0"
     orient="auto"
     inkscape:isstock="true"><g
       id="g6964"
       style="fill:#ffffff;fill-opacity:1;stroke:#000070;stroke-opacity:0.3105802"
       transform="translate(-13,0)"><circle
         id="circle6966"
         r="0.80000001"
         cy="0"
         cx="3"
         style="fill:#ffffff;fill-opacity:1;stroke:#000070;stroke-opacity:0.3105802" /><circle
         id="circle6968"
         r="0.80000001"
         cy="0"
         cx="6.5"
         style="fill:#ffffff;fill-opacity:1;stroke:#000070;stroke-opacity:0.3105802" /><circle
         id="circle6970"
         r="0.80000001"
         cy="0"
         cx="10"
         style="fill:#ffffff;fill-opacity:1;stroke:#000070;stroke-opacity:0.3105802" /></g></marker><marker
     style="overflow:visible"
     inkscape:stockid="InfiniteLineEnd"
     id="marker6469"
     refX="0"
     refY="0"
     orient="auto"
     inkscape:isstock="true"><g
       id="g6471"
       style="fill:#ffffff;fill-opacity:1;stroke:#000070;stroke-opacity:0.3105802"><circle
         id="circle6473"
         r="0.80000001"
         cy="0"
         cx="3"
         style="fill:#ffffff;fill-opacity:1;stroke:#000070;stroke-opacity:0.3105802" /><circle
         id="circle6475"
         r="0.80000001"
         cy="0"
         cx="6.5"
         style="fill:#ffffff;fill-opacity:1;stroke:#000070;stroke-opacity:0.3105802" /><circle
         id="circle6477"
         r="0.80000001"
         cy="0"
         cx="10"
         style="fill:#ffffff;fill-opacity:1;stroke:#000070;stroke-opacity:0.3105802" /></g></marker><marker
     style="overflow:visible"
     inkscape:stockid="InfiniteLineEnd"
     id="InfiniteLineEnd"
     refX="0"
     refY="0"
     orient="auto"
     inkscape:isstock="true"><g
       id="g5820"
       style="fill:#ffffff;fill-opacity:1;stroke:#000070;stroke-opacity:0.3105802"><circle
         id="circle5822"
         r="0.80000001"
         cy="0"
         cx="3"
         style="fill:#ffffff;fill-opacity:1;stroke:#000070;stroke-opacity:0.3105802" /><circle
         id="circle5824"
         r="0.80000001"
         cy="0"
         cx="6.5"
         style="fill:#ffffff;fill-opacity:1;stroke:#000070;stroke-opacity:0.3105802" /><circle
         id="circle5826"
         r="0.80000001"
         cy="0"
         cx="10"
         style="fill:#ffffff;fill-opacity:1;stroke:#000070;stroke-opacity:0.3105802" /></g></marker><marker
     style="overflow:visible"
     inkscape:stockid="InfiniteLineStart"
     id="InfiniteLineStart"
     refX="0"
     refY="0"
     orient="auto"
     inkscape:isstock="true"><g
       id="g5829"
       style="fill:#ffffff;fill-opacity:1;stroke:#000070;stroke-opacity:0.11262799"
       transform="translate(-13,0)"><circle
         id="circle5831"
         r="0.80000001"
         cy="0"
         cx="3"
         style="fill:#ffffff;fill-opacity:1;stroke:#000070;stroke-opacity:0.11262799" /><circle
         id="circle5833"
         r="0.80000001"
         cy="0"
         cx="6.5"
         style="fill:#ffffff;fill-opacity:1;stroke:#000070;stroke-opacity:0.11262799" /><circle
         id="circle5835"
         r="0.80000001"
         cy="0"
         cx="10"
         style="fill:#ffffff;fill-opacity:1;stroke:#000070;stroke-opacity:0.11262799" /></g></marker><marker
     inkscape:stockid="SquareL"
     orient="auto"
     refY="0"
     refX="0"
     id="SquareL"
     style="overflow:visible"
     inkscape:isstock="true"><path
       id="path5655"
       d="M -5,-5 -5,5 5,5 5,-5 -5,-5 Z"
       style="fill:#f5f5f6;fill-opacity:1;fill-rule:evenodd;stroke:#000070;stroke-width:1pt;stroke-opacity:0.11262799"
       transform="scale(0.8,0.8)"
       inkscape:connector-curvature="0" /></marker><marker
     inkscape:stockid="DiamondLstart"
     orient="auto"
     refY="0"
     refX="0"
     id="DiamondLstart"
     style="overflow:visible"
     inkscape:isstock="true"><path
       id="path5673"
       d="M 0,-7.0710768 -7.0710894,0 0,7.0710589 7.0710462,0 0,-7.0710768 Z"
       style="fill:#ffffff;fill-opacity:1;fill-rule:evenodd;stroke:#000070;stroke-width:1pt;stroke-opacity:0.3105802"
       transform="matrix(0.8,0,0,0.8,5.6,0)"
       inkscape:connector-curvature="0" /></marker><marker
     inkscape:stockid="DiamondLend"
     orient="auto"
     refY="0"
     refX="0"
     id="DiamondLend"
     style="overflow:visible"
     inkscape:isstock="true"><path
       id="path5682"
       d="M 0,-7.0710768 -7.0710894,0 0,7.0710589 7.0710462,0 0,-7.0710768 Z"
       style="fill:#f5f5f6;fill-opacity:1;fill-rule:evenodd;stroke:#000070;stroke-width:1pt;stroke-opacity:0.11262799"
       transform="matrix(0.8,0,0,0.8,-5.6,0)"
       inkscape:connector-curvature="0" /></marker><marker
     inkscape:stockid="DiamondL"
     orient="auto"
     refY="0"
     refX="0"
     id="marker7265-9"
     style="overflow:visible"
     inkscape:isstock="true"><path
       id="path5086-1"
       d="M 0,-7.0710768 -7.0710894,0 0,7.0710589 7.0710462,0 0,-7.0710768 Z"
       style="fill:#f5f5f6;fill-opacity:1;fill-rule:evenodd;stroke:#000070;stroke-width:1pt;stroke-opacity:0.11262799"
       transform="scale(0.8,0.8)"
       inkscape:connector-curvature="0" /></marker></defs><sodipodi:namedview
   pagecolor="#ffffff"
   bordercolor="#666666"
   borderopacity="1"
   objecttolerance="10"
   gridtolerance="10"
   guidetolerance="10"
   inkscape:pageopacity="0"
   inkscape:pageshadow="2"
   inkscape:window-width="1680"
   inkscape:window-height="987"
   id="namedview5"
   showgrid="false"
   inkscape:zoom="1.51375"
   inkscape:cx="339.06115"
   inkscape:cy="76.340388"
   inkscape:window-x="1672"
   inkscape:window-y="-8"
   inkscape:window-maximized="1"
   inkscape:current-layer="g5337" />

<g
   inkscape:groupmode="layer"
   id="layer1"
   inkscape:label="Layer 1"
   style="display:inline" /><g
   inkscape:groupmode="layer"
   id="layer2"
   inkscape:label="Layer 2"
   style="display:inline"><g
     id="g5337"><path
       id="rect9988"
       d="m -23.787043,117.37845 832.348353,0 c 15.30781,0 27.63143,12.32361 27.63143,27.63142 0,15.30781 -12.32362,27.63143 -27.63143,27.63143 l -832.348353,0 c -15.30781,0 -27.631425,-12.32362 -27.631425,-27.63143 0,-15.30781 12.323615,-27.63142 27.631425,-27.63142 z"
       style="display:inline;opacity:1;fill:#efefef;fill-opacity:1;fill-rule:nonzero;stroke:none;stroke-width:1.0832957;stroke-linecap:square;stroke-linejoin:miter;stroke-miterlimit:4;stroke-dasharray:none;stroke-opacity:1" /><path
       id="path3"
       sodipodi:nodetypes="ccc"
       inkscape:connector-curvature="0"
       d="m 800.02184,117.64246 c -120,0 -280,-40.00171 -400,-40.00071 -118.28443,1.067472 -286.47557,39.17406 -399.9999955,40.00071"
       style="opacity:1;fill:#efefef;fill-opacity:1;stroke:none;stroke-width:10.19999981;stroke-linecap:square;stroke-linejoin:miter;stroke-miterlimit:14.19999981;stroke-dasharray:none;stroke-dashoffset:0;stroke-opacity:0.11262799" /></g></g></svg>